<svg id="a" height="512" viewBox="0 0 64 64" width="512" xmlns="http://www.w3.org/2000/svg"><path d="m53.564 47.553-1.155-3.523c-.005-.023-.011-.046-.019-.068l-.005-.018-9.711-29.475c-.332-.975-.869-1.846-1.58-2.603-.022-.055-.053-.108-.095-.154-1.822-1.99-6.15-2.961-6.191-2.97-6.146-1.348-12.068 1.865-14.092 7.65l-10.267 31.071c-.538 1.53-.447 3.177.257 4.639.703 1.46 1.932 2.558 3.458 3.089.657.231 1.336.347 2.013.347.896 0 1.788-.202 2.62-.603 1.458-.702 2.557-1.931 3.097-3.468l2.72-8.15 19.934 11.23c.193.106.386.203.572.286.944.436 2.013.666 3.089.666.299 0 .598-.021.94-.062.243-.055.486-.112.698-.193 1.212-.404 2.237-1.176 2.985-2.272l.141-.207c.973-1.562 1.188-3.462.59-5.212zm-11.839-32.767 9.701 29.443c.002.027.006.055.012.081.11.995.063 1.464.017 1.671l-12.341-7.14-6.47-19.566 1.538-4.605c.205-.605.451-1.116.749-1.558.44-.641.897-1.052 1.488-1.334.702-.348 2.836.138 3.809.621.686.685 1.191 1.488 1.496 2.386zm-3.905 23.323-5.656-3.186c-1.347-.751-2.77-1.261-4.23-1.544l4.182-12.52zm-16.158-21.394c1.851-5.293 7.289-8.239 12.934-6.995.023.005 1.458.334 2.951.963-.596-.046-1.158-.002-1.562.196-.753.36-1.332.875-1.879 1.672-.351.52-.635 1.108-.87 1.801l-6.304 18.872c-4.604-.615-9.107 1.003-11.526 4.173-.017.017-.072.084-.086.103l-.939 1.25zm-.714 34.429c-.449 1.278-1.368 2.305-2.585 2.891-1.219.588-2.592.662-3.868.213-1.275-.443-2.301-1.359-2.888-2.578-.588-1.221-.664-2.596-.212-3.882l2.096-6.342c.091-.031.177-.081.239-.164.574-.763 1.484-1.27 2.568-1.427 1.093-.171 2.263.044 3.217.591l4.213 2.373zm31.188 1.075-.148.229c-.602.874-1.452 1.513-2.477 1.855-.188.071-.386.115-.527.15-1.153.128-2.402-.045-3.451-.53-.167-.074-.334-.157-.498-.248l-25.027-14.099c-.896-.514-1.919-.781-2.949-.781-.304 0-.608.023-.911.07-.246.036-.485.087-.716.152l.725-.964c2.315-3.029 6.65-4.52 11.049-3.8 1.549.232 3.053.752 4.469 1.542l6.32 3.56 13.08 7.561c.44.247.766.115.92.013.09-.06.168-.136.233-.231l.389 1.174c.501 1.469.322 3.06-.48 4.348z"/></svg>